<?xml version="1.0" encoding="UTF-8"?>
<svg width="66px" height="20px" viewBox="0 0 66 20" version="1.1" xmlns="http://www.w3.org/2000/svg" xmlns:xlink="http://www.w3.org/1999/xlink">
    <!-- Generator: Sketch 46.2 (44496) - http://www.bohemiancoding.com/sketch -->
    <title>logo_mobile_white</title>
    <desc>Created with Sketch.</desc>
    <defs></defs>
    <g id="Page-1" stroke="none" stroke-width="1" fill="none" fill-rule="evenodd">
        <g id="Artboard" transform="translate(-1045.000000, -2040.000000)">
            <g id="product-combinator" transform="translate(-1.000000, 1899.000000)">
                <g id="products" transform="translate(684.000000, 122.000000)">
                    <g id="logo_mobile_white" transform="translate(360.000000, 13.000000)">
                        <rect id="Rectangle-9-Copy" x="0" y="0" width="166" height="33"></rect>
                        <g id="mobile-white" stroke-width="1" fill-rule="evenodd" transform="translate(2.000000, 6.092593)" fill="#FFFFFF">
                            <g id="Layer_1">
                                <g id="Group">
                                    <g transform="translate(0.238766, 0.000000)" id="Shape">
                                        <g>
                                            <path d="M2.79356565,5.65517833 L1.57585755,3.13910322 C1.26546136,2.54003772 1.0505717,1.9170096 0.883435292,1.60549554 L0.883435292,1.60549554 C0.955065181,2.06078532 0.955065181,2.58796296 0.955065181,3.06721536 L0.955065181,5.58329047 L0.119383148,5.58329047 L0.119383148,0.31151406 L1.09832496,0.31151406 L2.38766295,2.89947702 C2.62642925,3.3547668 2.84131891,4.04968278 2.9129488,4.26534636 L2.9129488,4.26534636 C2.9129488,4.02572016 2.84131891,3.28287894 2.84131891,2.73173868 L2.84131891,0.28755144 L3.67700095,0.28755144 L3.67700095,5.55932785 L2.76968902,5.55932785 L2.76968902,5.65517833 L2.79356565,5.65517833 Z"></path>
                                            <path d="M5.32448838,3.90590706 L5.32448838,3.90590706 C5.32448838,4.50497257 5.56325468,5.05611283 6.23180031,5.05611283 C6.61382638,5.05611283 6.92422256,4.91233711 7.21074212,4.67271091 L7.5211383,5.19988855 C7.13911223,5.58329047 6.68545627,5.72706619 6.16017042,5.72706619 C5.08572209,5.72706619 4.41717646,4.96026235 4.41717646,3.73816872 C4.41717646,3.04325274 4.56043624,2.58796296 4.87083242,2.20456104 C5.18122861,1.82115912 5.56325468,1.6773834 6.08854053,1.6773834 C6.4705666,1.6773834 6.85259267,1.74927126 7.16298886,2.06078532 C7.47338504,2.37229938 7.68827471,2.82758916 7.68827471,3.73816872 L7.68827471,3.88194444 L5.32448838,3.88194444 L5.32448838,3.90590706 Z M6.0646639,2.30041152 C5.53937805,2.30041152 5.30061175,2.68381344 5.30061175,3.28287894 L6.75708616,3.28287894 C6.75708616,2.68381344 6.44668997,2.30041152 6.0646639,2.30041152 Z"></path>
                                            <path d="M11.9383148,5.65517833 L11.1742626,5.65517833 L10.6489768,3.8340192 C10.505717,3.37872942 10.4102105,2.7557013 10.4102105,2.7557013 L10.4102105,2.7557013 C10.4102105,2.7557013 10.3385806,3.13910322 10.1714442,3.8340192 L9.71778822,5.58329047 L8.95373607,5.58329047 L7.87928774,1.77323388 L8.71496978,1.70134602 L9.09699585,3.61835562 C9.16862574,4.0736454 9.24025563,4.60082305 9.24025563,4.60082305 L9.24025563,4.60082305 C9.24025563,4.60082305 9.31188551,4.0736454 9.47902192,3.52250514 L9.93267788,1.77323388 L10.7683599,1.77323388 L11.2220159,3.52250514 C11.3652757,4.12157064 11.5324121,4.60082305 11.5324121,4.60082305 L11.5324121,4.60082305 C11.5324121,4.60082305 11.6040419,4.00175754 11.6756718,3.52250514 L12.1293278,1.77323388 L12.9650098,1.77323388 L11.9383148,5.65517833 Z"></path>
                                            <path d="M17.788089,5.65517833 L17.334433,4.81648663 C16.952407,4.12157064 16.7375173,3.8340192 16.4271211,3.52250514 C16.3554912,3.45061728 16.2838613,3.37872942 16.045095,3.37872942 L16.045095,5.67914095 L15.209413,5.67914095 L15.209413,0.33547668 L16.8091472,0.33547668 C17.9552254,0.33547668 18.4805113,1.03039266 18.4805113,1.86908436 C18.4805113,2.6358882 18.0268553,3.33080418 17.1911733,3.33080418 C17.334433,3.40269204 17.7164591,3.92986968 18.0268553,4.40912209 L18.7909074,5.70310357 C18.7909074,5.65517833 17.788089,5.65517833 17.788089,5.65517833 Z M16.5703809,1.0783179 L16.1167249,1.0783179 L16.1167249,2.7557013 L16.5703809,2.7557013 C17.0240369,2.7557013 17.2628031,2.68381344 17.4060629,2.5160751 C17.5493227,2.34833676 17.6448292,2.13267318 17.6448292,1.9170096 C17.6448292,1.29398148 17.334433,1.0783179 16.5703809,1.0783179 Z"></path>
                                            <path d="M20.0802454,3.90590706 L20.0802454,3.90590706 C20.0802454,4.50497257 20.3190117,5.05611283 20.9875574,5.05611283 C21.3695834,5.05611283 21.6799796,4.91233711 21.9664992,4.67271091 L22.2768953,5.19988855 C21.8948693,5.51140261 21.4412133,5.72706619 20.9159275,5.72706619 C19.8414791,5.72706619 19.1729335,4.96026235 19.1729335,3.73816872 C19.1729335,3.04325274 19.3161933,2.58796296 19.6265895,2.20456104 C19.9369857,1.82115912 20.3190117,1.6773834 20.7726677,1.6773834 C21.1546938,1.6773834 21.5367198,1.74927126 21.847116,2.06078532 C22.1575122,2.37229938 22.3724019,2.82758916 22.3724019,3.73816872 L22.3724019,3.88194444 C22.3724019,3.90590706 20.0802454,3.90590706 20.0802454,3.90590706 Z M20.8442976,2.30041152 C20.3906416,2.30041152 20.0802454,2.68381344 20.0802454,3.28287894 L21.5367198,3.28287894 C21.5128432,2.68381344 21.2263236,2.30041152 20.8442976,2.30041152 Z"></path>
                                            <path d="M23.8049996,5.72706619 C22.9693176,5.72706619 22.9693176,4.96026235 22.9693176,4.64874829 L22.9693176,1.29398148 C22.9693176,0.766803841 22.9693176,0.455289781 22.8976877,0.14377572 L23.7333697,0 C23.8049996,0.2396262 23.8049996,0.527177641 23.8049996,1.0783179 L23.8049996,4.36119684 C23.8049996,4.88837449 23.8049996,4.96026235 23.8766295,5.05611283 C23.9482594,5.15196331 24.0198893,5.12800069 24.1870257,5.12800069 L24.3302855,5.58329047 C24.1870257,5.65517833 24.0437659,5.72706619 23.8049996,5.72706619 Z"></path>
                                            <path d="M25.4763637,1.15020576 C25.1659675,1.15020576 24.9510779,0.910579561 24.9510779,0.623028121 C24.9510779,0.33547668 25.1898441,0.0958504801 25.4763637,0.0958504801 C25.7628833,0.0958504801 26.0016496,0.33547668 26.0016496,0.623028121 C26.0016496,0.910579561 25.7867599,1.15020576 25.4763637,1.15020576 Z M25.0227077,5.65517833 L25.0227077,1.84512174 L25.8583898,1.70134602 L25.8583898,5.67914095 C25.8583898,5.65517833 25.0227077,5.65517833 25.0227077,5.65517833 Z"></path>
                                            <path d="M28.3654359,5.72706619 C27.2909875,5.72706619 26.7657017,4.96026235 26.7657017,3.73816872 C26.7657017,2.37229938 27.6013837,1.6773834 28.4370658,1.6773834 C28.8190918,1.6773834 29.129488,1.74927126 29.5115141,2.06078532 L29.129488,2.58796296 C28.8907217,2.34833676 28.6758321,2.2764489 28.5325723,2.2764489 C28.293806,2.2764489 28.0789163,2.42022462 27.9356565,2.65985082 C27.8640267,2.89947702 27.7923968,3.25891632 27.7923968,3.73816872 C27.7923968,4.26534636 27.8640267,4.57686043 28.0311631,4.81648663 C28.1744228,4.96026235 28.3415592,5.05611283 28.5564489,5.05611283 C28.7713386,5.05611283 29.0817348,4.91233711 29.3205011,4.67271091 L29.7025271,5.19988855 C29.2011179,5.58329047 28.9145984,5.72706619 28.3654359,5.72706619 Z"></path>
                                        </g>
                                        <path d="M31.3500146,5.72706619 C30.7530988,5.72706619 30.2039363,5.19988855 30.2039363,4.57686043 C30.2039363,3.9538323 30.7292222,3.42665466 31.3500146,3.42665466 C31.9469303,3.42665466 32.4960928,3.9538323 32.4960928,4.57686043 C32.4960928,5.19988855 32.0185602,5.72706619 31.3500146,5.72706619 Z M31.3500146,3.594393 C30.8963586,3.594393 30.4427026,3.97779492 30.4427026,4.50497257 C30.4427026,5.03215021 30.8247287,5.41555213 31.3500146,5.41555213 C31.8036705,5.41555213 32.2573265,5.03215021 32.2573265,4.50497257 C32.2573265,3.97779492 31.8753004,3.594393 31.3500146,3.594393 Z M31.5649042,5.19988855 C31.4932743,5.12800069 31.4932743,5.05611283 31.4216445,4.96026235 C31.2783847,4.72063615 31.2783847,4.64874829 31.1828782,4.64874829 C31.1828782,4.64874829 31.1828782,4.64874829 31.1112483,4.64874829 L31.1112483,5.17592593 L30.872482,5.17592593 L30.872482,3.88194444 L31.3261379,3.88194444 C31.5649042,3.88194444 31.708164,4.02572016 31.708164,4.26534636 C31.708164,4.50497257 31.5649042,4.64874829 31.3977678,4.64874829 C31.3977678,4.64874829 31.3977678,4.64874829 31.4693977,4.72063615 C31.5410276,4.79252401 31.7797939,5.24781379 31.7797939,5.24781379 L31.5410276,5.24781379 L31.5410276,5.19988855 L31.5649042,5.19988855 Z M31.4216445,4.12157064 L31.2783847,4.12157064 L31.2067548,4.12157064 L31.2067548,4.50497257 L31.2783847,4.50497257 C31.3500146,4.50497257 31.4216445,4.50497257 31.517151,4.43308471 C31.517151,4.43308471 31.5887809,4.36119684 31.5887809,4.28930898 C31.5649042,4.1934585 31.4932743,4.12157064 31.4216445,4.12157064 Z"></path>
                                    </g>
                                    <g transform="translate(0.000000, 6.949160)" id="Shape">
                                        <g>
                                            <polygon points="0.214889666 0.2396262 3.03233195 0.2396262 6.0646639 5.19988855 9.09699585 0.2396262 11.9383148 0.2396262 11.9383148 11.98131 9.35963877 11.98131 9.35963877 4.33723422 6.08854053 9.36938443 6.01691064 9.36938443 2.7458124 4.40912209 2.7458124 12.0531979 0.238766295 12.0531979 0.238766295 0.2396262"></polygon>
                                            <path d="M13.2515294,6.18235597 L13.2515294,6.18235597 C13.2515294,2.82758916 15.9257119,0.0718878601 19.4833297,0.0718878601 C23.136454,0.0718878601 25.71513,2.7557013 25.71513,6.11046811 L25.71513,6.11046811 C25.71513,9.46523491 23.0409475,12.2209362 19.4833297,12.2209362 C15.8302054,12.2209362 13.2515294,9.46523491 13.2515294,6.18235597 Z M22.9693176,6.18235597 L22.9693176,6.18235597 C22.9693176,4.12157064 21.5128432,2.44418724 19.3878232,2.44418724 C17.334433,2.44418724 15.8779586,4.12157064 15.8779586,6.11046811 L15.8779586,6.11046811 C15.8779586,8.09936557 17.334433,9.77674897 19.4594531,9.77674897 C21.5367198,9.84863683 22.9693176,8.17125343 22.9693176,6.18235597 Z"></path>
                                            <path d="M27.004468,0.2396262 L32.4722162,0.2396262 C33.833184,0.2396262 34.8360025,0.623028121 35.5045481,1.3179441 C36.029834,1.84512174 36.3402301,2.54003772 36.3402301,3.30684156 L36.3402301,3.30684156 C36.3402301,4.60082305 35.6478079,5.36762689 34.8121258,5.82291667 C36.1730937,6.35009431 37.0087758,7.11689815 37.0087758,8.72239369 L37.0087758,8.72239369 C37.0087758,10.8550669 35.2657818,11.9333848 32.5915993,11.9333848 L27.0283446,11.9333848 L27.0283446,0.2396262 L27.004468,0.2396262 Z M33.7138009,3.73816872 C33.7138009,2.97136488 33.1168852,2.5160751 32.0424368,2.5160751 L29.5353907,2.5160751 L29.5353907,5.03215021 L31.899177,5.03215021 C33.0213786,4.96026235 33.7138009,4.64874829 33.7138009,3.73816872 L33.7138009,3.73816872 Z M32.4960928,7.18878601 L29.5353907,7.18878601 L29.5353907,9.77674897 L32.5677227,9.77674897 C33.7138009,9.77674897 34.3823465,9.39334705 34.3823465,8.48276749 L34.3823465,8.48276749 C34.4062231,7.64407579 33.7854308,7.18878601 32.4960928,7.18878601 Z"></path>
                                            <polygon points="38.2026072 0.2396262 40.7812832 0.2396262 40.7812832 11.98131 38.2026072 11.98131"></polygon>
                                            <polygon points="42.6914136 0.2396262 45.2700896 0.2396262 45.2700896 9.63297325 51.1198638 9.63297325 51.1198638 12.0052726 42.667537 12.0052726 42.667537 0.2396262"></polygon>
                                            <polygon points="52.7434746 0.2396262 61.5778275 0.2396262 61.5778275 2.54003772 55.2505207 2.54003772 55.2505207 4.91233711 60.8137754 4.91233711 60.8137754 7.21274863 55.2505207 7.21274863 55.2505207 9.65693587 61.6494574 9.65693587 61.6494574 11.9573474 52.7434746 11.9573474"></polygon>
                                        </g>
                                        <path d="M63.0104253,0.455289781 L62.4851395,0.455289781 L62.4851395,0.21566358 L63.7028476,0.21566358 L63.7028476,0.455289781 L63.1775617,0.455289781 L63.1775617,1.82115912 L62.9387954,1.82115912 L62.9387954,0.455289781 L63.0104253,0.455289781 Z M64.0848736,0.2396262 L64.3236399,0.2396262 L64.8489258,1.0783179 L65.3742116,0.2396262 L65.6846078,0.2396262 L65.6846078,1.84512174 L65.4458415,1.84512174 L65.4458415,0.623028121 L64.9205557,1.46171982 L64.9205557,1.46171982 L64.3952698,0.623028121 L64.3952698,1.84512174 L64.1565035,1.84512174 L64.1565035,0.2396262 L64.0848736,0.2396262 Z"></path>
                                    </g>
                                </g>
                            </g>
                        </g>
                    </g>
                </g>
            </g>
        </g>
    </g>
</svg>